<svg width="60" height="60" viewBox="0 0 60 60" fill="none" xmlns="http://www.w3.org/2000/svg">
<path d="M45.1873 3.88477L55.6198 14.7598V56.1148H16.6479V56.2498H55.7529V14.8966L45.1873 3.88477Z" fill="#909090"/>
<path d="M45.0583 3.75H16.5151V56.115H55.6201V14.7619L45.0583 3.75Z" fill="#F4F4F4"/>
<path d="M16.2283 6.5625H4.24707V19.3631H41.9346V6.5625H16.2283Z" fill="#7A7B7C"/>
<path d="M42.1351 19.1459H4.49072V6.33594H42.1351V19.1459Z" fill="#DD2025"/>
<path d="M16.9726 8.50105H14.522V17.501H16.4495V14.4654L16.8751 14.4898C17.2887 14.4827 17.6984 14.4086 18.0882 14.2704C18.43 14.1529 18.7445 13.9672 19.0126 13.7248C19.2854 13.4938 19.5005 13.2023 19.6407 12.8735C19.8288 12.327 19.8959 11.7461 19.8376 11.171C19.8259 10.7602 19.7539 10.3534 19.6238 9.96355C19.5055 9.68212 19.3298 9.42842 19.1081 9.2186C18.8863 9.00877 18.6233 8.84741 18.3357 8.7448C18.0871 8.65479 17.8303 8.58948 17.5688 8.5498C17.3709 8.51925 17.171 8.50296 16.9707 8.50105M16.6163 12.8023H16.4495V10.0273H16.8113C16.9711 10.0158 17.1313 10.0403 17.2803 10.099C17.4292 10.1578 17.5631 10.2492 17.672 10.3667C17.8976 10.6686 18.0181 11.0361 18.0151 11.4129C18.0151 11.8742 18.0151 12.2923 17.5988 12.5867C17.299 12.7516 16.9576 12.8277 16.6163 12.8023ZM23.4995 8.47667C23.2913 8.47667 23.0888 8.49167 22.9463 8.4973L22.5001 8.50855H21.0376V17.5085H22.7588C23.4166 17.5266 24.0716 17.4151 24.6863 17.1804C25.1812 16.9842 25.6194 16.6678 25.9613 16.2598C26.2939 15.8482 26.5326 15.3689 26.6607 14.8554C26.808 14.2739 26.8799 13.6759 26.8745 13.076C26.9108 12.3676 26.856 11.6574 26.7113 10.9629C26.5741 10.4517 26.317 9.98059 25.9613 9.58855C25.6823 9.27198 25.3408 9.01662 24.9582 8.83855C24.6297 8.68652 24.2841 8.57446 23.9288 8.5048C23.7876 8.48146 23.6445 8.47079 23.5013 8.47292M23.1601 15.8548H22.9726V10.1098H22.997C23.3835 10.0653 23.7746 10.1351 24.122 10.3104C24.3763 10.5135 24.5836 10.7694 24.7295 11.0604C24.8869 11.3667 24.9776 11.7028 24.9957 12.0467C25.0126 12.4592 24.9957 12.7967 24.9957 13.076C25.0034 13.3979 24.9827 13.7197 24.9338 14.0379C24.8761 14.3646 24.7692 14.6807 24.617 14.9754C24.4446 15.2495 24.2118 15.4804 23.9363 15.6504C23.705 15.8 23.4311 15.8698 23.1563 15.8492M32.6813 8.50855H28.1251V17.5085H30.0526V13.9385H32.4901V12.266H30.0526V10.181H32.6776V8.50855" fill="#464648"/>
<path d="M40.8393 37.9783C40.8393 37.9783 46.8168 36.8946 46.8168 38.9365C46.8168 40.9783 43.1137 40.1477 40.8393 37.9783ZM36.4199 38.134C35.4702 38.3438 34.5447 38.6511 33.658 39.0508L34.408 37.3633C35.158 35.6758 35.9362 33.3752 35.9362 33.3752C36.8311 34.8815 37.8724 36.2958 39.0449 37.5977C38.1607 37.7296 37.2844 37.9098 36.4199 38.1377V38.134ZM34.0537 25.9465C34.0537 24.1671 34.6293 23.6815 35.0774 23.6815C35.5255 23.6815 36.0299 23.8971 36.0468 25.4421C35.9008 26.9956 35.5755 28.5271 35.0774 30.0058C34.3951 28.7643 34.042 27.3687 34.0518 25.9521L34.0537 25.9465ZM25.3368 45.664C23.503 44.5671 29.1824 41.1902 30.2118 41.0815C30.2062 41.0833 27.2568 46.8115 25.3368 45.664ZM48.5624 39.1783C48.5437 38.9908 48.3749 36.9152 44.6812 37.0033C43.1415 36.9785 41.6027 37.087 40.0818 37.3277C38.6085 35.8435 37.3398 34.1693 36.3093 32.3496C36.9585 30.4735 37.3515 28.5183 37.4774 26.5371C37.423 24.2871 36.8849 22.9971 35.1599 23.0158C33.4349 23.0346 33.1837 24.544 33.4105 26.7902C33.6328 28.2997 34.052 29.7735 34.6574 31.174C34.6574 31.174 33.8605 33.6546 32.8068 36.1221C31.753 38.5896 31.033 39.8833 31.033 39.8833C29.2006 40.4798 27.4757 41.3661 25.9237 42.5083C24.3787 43.9465 23.7505 45.0508 24.5643 46.1552C25.2655 47.1077 27.7199 47.3233 29.9137 44.449C31.0793 42.9643 32.1441 41.4034 33.1012 39.7765C33.1012 39.7765 36.4462 38.8596 37.4868 38.6083C38.5274 38.3571 39.7855 38.1583 39.7855 38.1583C39.7855 38.1583 42.8399 41.2315 45.7855 41.1227C48.7312 41.014 48.5887 39.3621 48.5699 39.1821" fill="#DD2025"/>
<path d="M44.9136 3.89453V14.9064H55.4754L44.9136 3.89453Z" fill="#909090"/>
<path d="M45.0581 3.75V14.7619H55.62L45.0581 3.75Z" fill="#F4F4F4"/>
<path d="M16.8281 8.35652H14.3774V17.3565H16.3124V14.3228L16.7399 14.3471C17.1535 14.34 17.5632 14.2659 17.9531 14.1278C18.2949 14.0102 18.6093 13.8245 18.8774 13.5821C19.1482 13.3506 19.3613 13.0591 19.4999 12.7309C19.688 12.1843 19.7552 11.6035 19.6968 11.0284C19.6851 10.6176 19.6131 10.2107 19.4831 9.82089C19.3647 9.53947 19.189 9.28577 18.9673 9.07594C18.7455 8.86611 18.4825 8.70476 18.1949 8.60214C17.9452 8.51126 17.6871 8.44531 17.4243 8.40527C17.2264 8.37472 17.0265 8.35843 16.8262 8.35652M16.4718 12.6578H16.3049V9.88277H16.6687C16.8284 9.87125 16.9887 9.89577 17.1376 9.95451C17.2866 10.0132 17.4205 10.1047 17.5293 10.2221C17.7549 10.524 17.8754 10.8915 17.8724 11.2684C17.8724 11.7296 17.8724 12.1478 17.4562 12.4421C17.1563 12.6071 16.815 12.6813 16.4737 12.6559M23.3549 8.33214C23.1468 8.33214 22.9443 8.34714 22.8018 8.35277L22.3612 8.36402H20.8987V17.364H22.6199C23.2777 17.382 23.9327 17.2706 24.5474 17.0359C25.0423 16.8396 25.4805 16.5232 25.8224 16.1153C26.155 15.7036 26.3937 15.2243 26.5218 14.7109C26.6691 14.1294 26.741 13.5314 26.7356 12.9315C26.7719 12.2231 26.7171 11.5129 26.5724 10.8184C26.4352 10.3072 26.1781 9.83606 25.8224 9.44402C25.5434 9.12745 25.2019 8.87208 24.8193 8.69402C24.4908 8.54198 24.1452 8.42993 23.7899 8.36027C23.6487 8.33693 23.5056 8.32626 23.3624 8.32839M23.0212 15.7103H22.8337V9.96527H22.8581C23.2446 9.92079 23.6357 9.99054 23.9831 10.1659C24.2374 10.369 24.4447 10.6249 24.5906 10.9159C24.748 11.2221 24.8387 11.5583 24.8568 11.9021C24.8737 12.3146 24.8568 12.6521 24.8568 12.9315C24.8644 13.2533 24.8437 13.5752 24.7949 13.8934C24.7371 14.2201 24.6303 14.5361 24.4781 14.8309C24.3057 15.1049 24.0729 15.3358 23.7974 15.5059C23.5661 15.6555 23.2922 15.7253 23.0174 15.7046M32.5368 8.36402H27.9806V17.364H29.9081V13.794H32.3456V12.1215H29.9081V10.0365H32.5331V8.36402" fill="white"/>
</svg>
