<svg width="16" height="17" viewBox="0 0 16 17" fill="none" xmlns="http://www.w3.org/2000/svg">
<path d="M8.21387 0.589844C10.4155 0.701339 12.166 2.52163 12.166 4.75098L12.1611 4.96484C12.106 6.05267 11.6331 7.02942 10.9004 7.74023C12.663 8.04322 14.1568 9.27552 14.7666 11.0029L15.502 13.085C16.076 14.7115 14.8693 16.4169 13.1445 16.417H12.583C12.1229 16.4168 11.75 16.0441 11.75 15.584C11.75 15.1239 12.1229 14.7512 12.583 14.751H13.1445C13.7194 14.7509 14.122 14.1818 13.9307 13.6396L13.1953 11.5576C12.7249 10.2251 11.4649 9.33398 10.0518 9.33398H5.94824C4.53506 9.33398 3.27513 10.2251 2.80469 11.5576L2.07031 13.6396C1.87898 14.1818 2.28062 14.7508 2.85547 14.751H9.25C9.71024 14.751 10.083 15.1237 10.083 15.584C10.083 16.0442 9.71024 16.417 9.25 16.417H2.85547C1.1307 16.4169 -0.0760061 14.7114 0.498047 13.085L1.2334 11.0029C1.84311 9.27584 3.33641 8.04351 5.09863 7.74023C4.36653 7.02935 3.89394 6.05226 3.83887 4.96484L3.83301 4.75098C3.83301 2.4499 5.69897 0.58417 8 0.583984L8.21387 0.589844ZM8 2.28418C6.63786 2.28437 5.5332 3.38879 5.5332 4.75098C5.53338 6.11301 6.63796 7.21759 8 7.21777C9.36204 7.2176 10.4666 6.11302 10.4668 4.75098C10.4668 3.38878 9.36215 2.28436 8 2.28418Z" fill="#424242"/>
</svg>
